<mxfile host="07b90d77-7742-4a0b-912a-e34830937974" modified="2020-08-28T09:48:24.922Z" agent="5.0 (Windows NT 10.0; Win64; x64) AppleWebKit/537.36 (KHTML, like Gecko) Code/1.48.2 Chrome/78.0.3904.130 Electron/7.3.2 Safari/537.36" etag="TRh1k6EwtOMersH6syZ3" version="13.1.3">
    <diagram id="uO4dAVEa6rhhREKeQXkx" name="Page-1">
        <mxGraphModel dx="1283" dy="1036" grid="1" gridSize="10" guides="1" tooltips="1" connect="1" arrows="1" fold="1" page="1" pageScale="1" pageWidth="1654" pageHeight="1169" math="0" shadow="0">
            <root>
                <mxCell id="0"/>
                <mxCell id="1" parent="0"/>
                <mxCell id="aZ_iibs6CTDmy4hI5hPu-120" value="&lt;i&gt;&quot;bij AnnotationProperty, ofwel eigenschappen met tekst waardes&quot;&lt;/i&gt;" style="shape=note;whiteSpace=wrap;html=1;size=14;verticalAlign=bottom;align=left;spacingTop=-6;dashed=1;strokeColor=#FF00FF;" parent="1" vertex="1">
                    <mxGeometry x="1100" y="862.21" width="540" height="273" as="geometry"/>
                </mxCell>
                <mxCell id="aZ_iibs6CTDmy4hI5hPu-119" value="&lt;i&gt;&quot;bij DataProperty, ofwel eigenschappen met eenheden&quot;&lt;/i&gt;" style="shape=note;whiteSpace=wrap;html=1;size=14;verticalAlign=bottom;align=left;spacingTop=-6;dashed=1;strokeColor=#00CC00;" parent="1" vertex="1">
                    <mxGeometry x="1100" y="512.21" width="540" height="330" as="geometry"/>
                </mxCell>
                <mxCell id="aZ_iibs6CTDmy4hI5hPu-118" value="&lt;i&gt;&quot;bij ObjectProperty, ofwel vastewaardenlijsten&quot;&lt;/i&gt;" style="shape=note;whiteSpace=wrap;html=1;size=14;verticalAlign=bottom;align=left;spacingTop=-6;dashed=1;strokeColor=#B30E2F;" parent="1" vertex="1">
                    <mxGeometry x="1100" y="172.21" width="540" height="320" as="geometry"/>
                </mxCell>
                <mxCell id="aZ_iibs6CTDmy4hI5hPu-1" value="nta8035:PhysicalObject" style="swimlane;fontStyle=0;childLayout=stackLayout;horizontal=1;startSize=26;fillColor=none;horizontalStack=0;resizeParent=1;resizeParentMax=0;resizeLast=0;collapsible=1;marginBottom=0;" parent="1" vertex="1">
                    <mxGeometry x="330" y="20" width="160" height="104" as="geometry"/>
                </mxCell>
                <mxCell id="aZ_iibs6CTDmy4hI5hPu-2" value="+ rdfs:label / skos:prefLabel" style="text;strokeColor=none;fillColor=none;align=left;verticalAlign=top;spacingLeft=4;spacingRight=4;overflow=hidden;rotatable=0;points=[[0,0.5],[1,0.5]];portConstraint=eastwest;" parent="aZ_iibs6CTDmy4hI5hPu-1" vertex="1">
                    <mxGeometry y="26" width="160" height="26" as="geometry"/>
                </mxCell>
                <mxCell id="aZ_iibs6CTDmy4hI5hPu-4" value="+ skos:definition" style="text;strokeColor=none;fillColor=none;align=left;verticalAlign=top;spacingLeft=4;spacingRight=4;overflow=hidden;rotatable=0;points=[[0,0.5],[1,0.5]];portConstraint=eastwest;" parent="aZ_iibs6CTDmy4hI5hPu-1" vertex="1">
                    <mxGeometry y="52" width="160" height="26" as="geometry"/>
                </mxCell>
                <mxCell id="aZ_iibs6CTDmy4hI5hPu-127" value="+ skos:notation" style="text;strokeColor=none;fillColor=none;align=left;verticalAlign=top;spacingLeft=4;spacingRight=4;overflow=hidden;rotatable=0;points=[[0,0.5],[1,0.5]];portConstraint=eastwest;" parent="aZ_iibs6CTDmy4hI5hPu-1" vertex="1">
                    <mxGeometry y="78" width="160" height="26" as="geometry"/>
                </mxCell>
                <mxCell id="aZ_iibs6CTDmy4hI5hPu-5" value="skos:collection" style="swimlane;fontStyle=0;childLayout=stackLayout;horizontal=1;startSize=26;fillColor=none;horizontalStack=0;resizeParent=1;resizeParentMax=0;resizeLast=0;collapsible=1;marginBottom=0;" parent="1" vertex="1">
                    <mxGeometry x="10" y="20" width="160" height="104" as="geometry"/>
                </mxCell>
                <mxCell id="aZ_iibs6CTDmy4hI5hPu-6" value="+ rdfs:label / skos:prefLabel" style="text;strokeColor=none;fillColor=none;align=left;verticalAlign=top;spacingLeft=4;spacingRight=4;overflow=hidden;rotatable=0;points=[[0,0.5],[1,0.5]];portConstraint=eastwest;" parent="aZ_iibs6CTDmy4hI5hPu-5" vertex="1">
                    <mxGeometry y="26" width="160" height="26" as="geometry"/>
                </mxCell>
                <mxCell id="aZ_iibs6CTDmy4hI5hPu-7" value="+ skos:definition" style="text;strokeColor=none;fillColor=none;align=left;verticalAlign=top;spacingLeft=4;spacingRight=4;overflow=hidden;rotatable=0;points=[[0,0.5],[1,0.5]];portConstraint=eastwest;" parent="aZ_iibs6CTDmy4hI5hPu-5" vertex="1">
                    <mxGeometry y="52" width="160" height="26" as="geometry"/>
                </mxCell>
                <mxCell id="aZ_iibs6CTDmy4hI5hPu-8" value="+ skos:notation" style="text;strokeColor=none;fillColor=none;align=left;verticalAlign=top;spacingLeft=4;spacingRight=4;overflow=hidden;rotatable=0;points=[[0,0.5],[1,0.5]];portConstraint=eastwest;" parent="aZ_iibs6CTDmy4hI5hPu-5" vertex="1">
                    <mxGeometry y="78" width="160" height="26" as="geometry"/>
                </mxCell>
                <mxCell id="aZ_iibs6CTDmy4hI5hPu-9" style="edgeStyle=orthogonalEdgeStyle;rounded=0;orthogonalLoop=1;jettySize=auto;html=1;entryX=0;entryY=0.5;entryDx=0;entryDy=0;" parent="1" source="aZ_iibs6CTDmy4hI5hPu-7" edge="1">
                    <mxGeometry relative="1" as="geometry">
                        <mxPoint x="330" y="85" as="targetPoint"/>
                    </mxGeometry>
                </mxCell>
                <mxCell id="aZ_iibs6CTDmy4hI5hPu-10" value="&lt;div&gt;skos:member&lt;/div&gt;" style="text;html=1;align=center;verticalAlign=middle;resizable=0;points=[];labelBackgroundColor=#ffffff;" parent="aZ_iibs6CTDmy4hI5hPu-9" vertex="1" connectable="0">
                    <mxGeometry x="-0.1429" y="3" relative="1" as="geometry">
                        <mxPoint as="offset"/>
                    </mxGeometry>
                </mxCell>
                <mxCell id="aZ_iibs6CTDmy4hI5hPu-21" style="edgeStyle=orthogonalEdgeStyle;rounded=0;orthogonalLoop=1;jettySize=auto;html=1;entryX=0;entryY=0.5;entryDx=0;entryDy=0;exitX=1;exitY=0.5;exitDx=0;exitDy=0;" parent="1" source="aZ_iibs6CTDmy4hI5hPu-13" target="aZ_iibs6CTDmy4hI5hPu-19" edge="1">
                    <mxGeometry relative="1" as="geometry">
                        <Array as="points">
                            <mxPoint x="810" y="80"/>
                            <mxPoint x="1020" y="80"/>
                            <mxPoint x="1020" y="247"/>
                        </Array>
                        <mxPoint x="980" y="119" as="sourcePoint"/>
                    </mxGeometry>
                </mxCell>
                <mxCell id="aZ_iibs6CTDmy4hI5hPu-22" value="sh:property" style="text;html=1;align=center;verticalAlign=middle;resizable=0;points=[];labelBackgroundColor=#ffffff;" parent="aZ_iibs6CTDmy4hI5hPu-21" vertex="1" connectable="0">
                    <mxGeometry x="0.3168" y="-2" relative="1" as="geometry">
                        <mxPoint x="42" y="36.54" as="offset"/>
                    </mxGeometry>
                </mxCell>
                <mxCell id="aZ_iibs6CTDmy4hI5hPu-11" value="sh:NodeShape" style="swimlane;fontStyle=0;childLayout=stackLayout;horizontal=1;startSize=26;fillColor=none;horizontalStack=0;resizeParent=1;resizeParentMax=0;resizeLast=0;collapsible=1;marginBottom=0;" parent="1" vertex="1">
                    <mxGeometry x="650" y="20" width="160" height="104" as="geometry"/>
                </mxCell>
                <mxCell id="aZ_iibs6CTDmy4hI5hPu-12" value=" " style="text;strokeColor=none;fillColor=none;align=left;verticalAlign=top;spacingLeft=4;spacingRight=4;overflow=hidden;rotatable=0;points=[[0,0.5],[1,0.5]];portConstraint=eastwest;" parent="aZ_iibs6CTDmy4hI5hPu-11" vertex="1">
                    <mxGeometry y="26" width="160" height="26" as="geometry"/>
                </mxCell>
                <mxCell id="aZ_iibs6CTDmy4hI5hPu-13" value=" " style="text;strokeColor=none;fillColor=none;align=left;verticalAlign=top;spacingLeft=4;spacingRight=4;overflow=hidden;rotatable=0;points=[[0,0.5],[1,0.5]];portConstraint=eastwest;" parent="aZ_iibs6CTDmy4hI5hPu-11" vertex="1">
                    <mxGeometry y="52" width="160" height="26" as="geometry"/>
                </mxCell>
                <mxCell id="aZ_iibs6CTDmy4hI5hPu-14" value=" " style="text;strokeColor=none;fillColor=none;align=left;verticalAlign=top;spacingLeft=4;spacingRight=4;overflow=hidden;rotatable=0;points=[[0,0.5],[1,0.5]];portConstraint=eastwest;" parent="aZ_iibs6CTDmy4hI5hPu-11" vertex="1">
                    <mxGeometry y="78" width="160" height="26" as="geometry"/>
                </mxCell>
                <mxCell id="aZ_iibs6CTDmy4hI5hPu-15" style="edgeStyle=orthogonalEdgeStyle;rounded=0;orthogonalLoop=1;jettySize=auto;html=1;entryX=1;entryY=0.5;entryDx=0;entryDy=0;" parent="1" source="aZ_iibs6CTDmy4hI5hPu-13" edge="1">
                    <mxGeometry relative="1" as="geometry">
                        <mxPoint x="490" y="85" as="targetPoint"/>
                    </mxGeometry>
                </mxCell>
                <mxCell id="aZ_iibs6CTDmy4hI5hPu-16" value="sh:targetClass" style="text;html=1;align=center;verticalAlign=middle;resizable=0;points=[];labelBackgroundColor=#ffffff;" parent="aZ_iibs6CTDmy4hI5hPu-15" vertex="1" connectable="0">
                    <mxGeometry x="-0.4189" y="4" relative="1" as="geometry">
                        <mxPoint x="-24" y="-4" as="offset"/>
                    </mxGeometry>
                </mxCell>
                <mxCell id="aZ_iibs6CTDmy4hI5hPu-27" style="edgeStyle=orthogonalEdgeStyle;rounded=0;orthogonalLoop=1;jettySize=auto;html=1;entryX=0;entryY=0.5;entryDx=0;entryDy=0;exitX=1;exitY=0.5;exitDx=0;exitDy=0;" parent="1" source="aZ_iibs6CTDmy4hI5hPu-19" edge="1">
                    <mxGeometry relative="1" as="geometry">
                        <mxPoint x="1460" y="247.21" as="targetPoint"/>
                    </mxGeometry>
                </mxCell>
                <mxCell id="aZ_iibs6CTDmy4hI5hPu-28" value="sh:path" style="text;html=1;align=center;verticalAlign=middle;resizable=0;points=[];labelBackgroundColor=#ffffff;" parent="aZ_iibs6CTDmy4hI5hPu-27" vertex="1" connectable="0">
                    <mxGeometry x="-0.0739" y="3" relative="1" as="geometry">
                        <mxPoint as="offset"/>
                    </mxGeometry>
                </mxCell>
                <mxCell id="aZ_iibs6CTDmy4hI5hPu-33" style="edgeStyle=orthogonalEdgeStyle;rounded=0;orthogonalLoop=1;jettySize=auto;html=1;entryX=0;entryY=0.5;entryDx=0;entryDy=0;" parent="1" source="aZ_iibs6CTDmy4hI5hPu-17" target="aZ_iibs6CTDmy4hI5hPu-31" edge="1">
                    <mxGeometry relative="1" as="geometry">
                        <mxPoint x="1260" y="302.21" as="sourcePoint"/>
                        <mxPoint x="1420" y="492.21" as="targetPoint"/>
                    </mxGeometry>
                </mxCell>
                <mxCell id="aZ_iibs6CTDmy4hI5hPu-34" value="sh:class" style="text;html=1;align=center;verticalAlign=middle;resizable=0;points=[];labelBackgroundColor=#ffffff;" parent="aZ_iibs6CTDmy4hI5hPu-33" vertex="1" connectable="0">
                    <mxGeometry x="0.2605" y="-22" relative="1" as="geometry">
                        <mxPoint x="-2" y="-22" as="offset"/>
                    </mxGeometry>
                </mxCell>
                <mxCell id="aZ_iibs6CTDmy4hI5hPu-50" style="edgeStyle=orthogonalEdgeStyle;rounded=0;orthogonalLoop=1;jettySize=auto;html=1;entryX=0;entryY=0.5;entryDx=0;entryDy=0;exitX=1;exitY=0.5;exitDx=0;exitDy=0;" parent="1" source="aZ_iibs6CTDmy4hI5hPu-20" target="aZ_iibs6CTDmy4hI5hPu-46" edge="1">
                    <mxGeometry relative="1" as="geometry">
                        <mxPoint x="1280" y="332.21" as="sourcePoint"/>
                        <Array as="points">
                            <mxPoint x="1320" y="273"/>
                            <mxPoint x="1320" y="328"/>
                        </Array>
                    </mxGeometry>
                </mxCell>
                <mxCell id="aZ_iibs6CTDmy4hI5hPu-51" value="sh:group" style="text;html=1;align=center;verticalAlign=middle;resizable=0;points=[];labelBackgroundColor=#ffffff;" parent="aZ_iibs6CTDmy4hI5hPu-50" vertex="1" connectable="0">
                    <mxGeometry x="-0.4365" relative="1" as="geometry">
                        <mxPoint x="-20" y="-11.990000000000002" as="offset"/>
                    </mxGeometry>
                </mxCell>
                <mxCell id="aZ_iibs6CTDmy4hI5hPu-17" value="sh:PropertyShape" style="swimlane;fontStyle=0;childLayout=stackLayout;horizontal=1;startSize=26;fillColor=none;horizontalStack=0;resizeParent=1;resizeParentMax=0;resizeLast=0;collapsible=1;marginBottom=0;" parent="1" vertex="1">
                    <mxGeometry x="1140" y="182.21" width="160" height="104" as="geometry"/>
                </mxCell>
                <mxCell id="aZ_iibs6CTDmy4hI5hPu-18" value="+ sh:maxCount" style="text;strokeColor=none;fillColor=none;align=left;verticalAlign=top;spacingLeft=4;spacingRight=4;overflow=hidden;rotatable=0;points=[[0,0.5],[1,0.5]];portConstraint=eastwest;" parent="aZ_iibs6CTDmy4hI5hPu-17" vertex="1">
                    <mxGeometry y="26" width="160" height="26" as="geometry"/>
                </mxCell>
                <mxCell id="aZ_iibs6CTDmy4hI5hPu-19" value=" " style="text;strokeColor=none;fillColor=none;align=left;verticalAlign=top;spacingLeft=4;spacingRight=4;overflow=hidden;rotatable=0;points=[[0,0.5],[1,0.5]];portConstraint=eastwest;" parent="aZ_iibs6CTDmy4hI5hPu-17" vertex="1">
                    <mxGeometry y="52" width="160" height="26" as="geometry"/>
                </mxCell>
                <mxCell id="aZ_iibs6CTDmy4hI5hPu-20" value=" " style="text;strokeColor=none;fillColor=none;align=left;verticalAlign=top;spacingLeft=4;spacingRight=4;overflow=hidden;rotatable=0;points=[[0,0.5],[1,0.5]];portConstraint=eastwest;" parent="aZ_iibs6CTDmy4hI5hPu-17" vertex="1">
                    <mxGeometry y="78" width="160" height="26" as="geometry"/>
                </mxCell>
                <mxCell id="aZ_iibs6CTDmy4hI5hPu-23" value="rdf:property" style="swimlane;fontStyle=0;childLayout=stackLayout;horizontal=1;startSize=26;fillColor=none;horizontalStack=0;resizeParent=1;resizeParentMax=0;resizeLast=0;collapsible=1;marginBottom=0;" parent="1" vertex="1">
                    <mxGeometry x="1460" y="182.21" width="160" height="104" as="geometry"/>
                </mxCell>
                <mxCell id="aZ_iibs6CTDmy4hI5hPu-24" value="+ rdfs:label / skos:prefLabel" style="text;strokeColor=none;fillColor=none;align=left;verticalAlign=top;spacingLeft=4;spacingRight=4;overflow=hidden;rotatable=0;points=[[0,0.5],[1,0.5]];portConstraint=eastwest;fontStyle=0" parent="aZ_iibs6CTDmy4hI5hPu-23" vertex="1">
                    <mxGeometry y="26" width="160" height="26" as="geometry"/>
                </mxCell>
                <mxCell id="aZ_iibs6CTDmy4hI5hPu-128" value="+ skos:definition" style="text;strokeColor=none;fillColor=none;align=left;verticalAlign=top;spacingLeft=4;spacingRight=4;overflow=hidden;rotatable=0;points=[[0,0.5],[1,0.5]];portConstraint=eastwest;" parent="aZ_iibs6CTDmy4hI5hPu-23" vertex="1">
                    <mxGeometry y="52" width="160" height="26" as="geometry"/>
                </mxCell>
                <mxCell id="aZ_iibs6CTDmy4hI5hPu-26" value="+ skos:notation" style="text;strokeColor=none;fillColor=none;align=left;verticalAlign=top;spacingLeft=4;spacingRight=4;overflow=hidden;rotatable=0;points=[[0,0.5],[1,0.5]];portConstraint=eastwest;" parent="aZ_iibs6CTDmy4hI5hPu-23" vertex="1">
                    <mxGeometry y="78" width="160" height="26" as="geometry"/>
                </mxCell>
                <mxCell id="aZ_iibs6CTDmy4hI5hPu-29" value="nta8035:EnumerationType" style="swimlane;fontStyle=0;childLayout=stackLayout;horizontal=1;startSize=26;fillColor=none;horizontalStack=0;resizeParent=1;resizeParentMax=0;resizeLast=0;collapsible=1;marginBottom=0;" parent="1" vertex="1">
                    <mxGeometry x="1460" y="372.21" width="160" height="104" as="geometry"/>
                </mxCell>
                <mxCell id="aZ_iibs6CTDmy4hI5hPu-30" value="+ rdfs:label / skos:prefLabel" style="text;strokeColor=none;fillColor=none;align=left;verticalAlign=top;spacingLeft=4;spacingRight=4;overflow=hidden;rotatable=0;points=[[0,0.5],[1,0.5]];portConstraint=eastwest;" parent="aZ_iibs6CTDmy4hI5hPu-29" vertex="1">
                    <mxGeometry y="26" width="160" height="26" as="geometry"/>
                </mxCell>
                <mxCell id="aZ_iibs6CTDmy4hI5hPu-31" value="+ skos:definition" style="text;strokeColor=none;fillColor=none;align=left;verticalAlign=top;spacingLeft=4;spacingRight=4;overflow=hidden;rotatable=0;points=[[0,0.5],[1,0.5]];portConstraint=eastwest;" parent="aZ_iibs6CTDmy4hI5hPu-29" vertex="1">
                    <mxGeometry y="52" width="160" height="26" as="geometry"/>
                </mxCell>
                <mxCell id="aZ_iibs6CTDmy4hI5hPu-32" value="+ skos:notation" style="text;strokeColor=none;fillColor=none;align=left;verticalAlign=top;spacingLeft=4;spacingRight=4;overflow=hidden;rotatable=0;points=[[0,0.5],[1,0.5]];portConstraint=eastwest;" parent="aZ_iibs6CTDmy4hI5hPu-29" vertex="1">
                    <mxGeometry y="78" width="160" height="26" as="geometry"/>
                </mxCell>
                <mxCell id="aZ_iibs6CTDmy4hI5hPu-46" value="sh:PropertyGroup" style="swimlane;fontStyle=0;childLayout=stackLayout;horizontal=1;startSize=26;fillColor=none;horizontalStack=0;resizeParent=1;resizeParentMax=0;resizeLast=0;collapsible=1;marginBottom=0;" parent="1" vertex="1">
                    <mxGeometry x="1460" y="302.21" width="160" height="52" as="geometry"/>
                </mxCell>
                <mxCell id="aZ_iibs6CTDmy4hI5hPu-47" value="+ rdfs:label / skos:prefLabel" style="text;strokeColor=none;fillColor=none;align=left;verticalAlign=top;spacingLeft=4;spacingRight=4;overflow=hidden;rotatable=0;points=[[0,0.5],[1,0.5]];portConstraint=eastwest;" parent="aZ_iibs6CTDmy4hI5hPu-46" vertex="1">
                    <mxGeometry y="26" width="160" height="26" as="geometry"/>
                </mxCell>
                <mxCell id="aZ_iibs6CTDmy4hI5hPu-56" value="rdf:type" style="edgeStyle=orthogonalEdgeStyle;rounded=0;orthogonalLoop=1;jettySize=auto;html=1;exitX=0.135;exitY=0.036;exitDx=0;exitDy=0;exitPerimeter=0;endArrow=open;endFill=0;" parent="1" source="aZ_iibs6CTDmy4hI5hPu-53" target="aZ_iibs6CTDmy4hI5hPu-5" edge="1">
                    <mxGeometry x="0.6558" y="-29" relative="1" as="geometry">
                        <mxPoint x="100" y="190" as="sourcePoint"/>
                        <mxPoint x="51" y="37" as="targetPoint"/>
                        <Array as="points">
                            <mxPoint x="51" y="170"/>
                            <mxPoint x="51" y="170"/>
                        </Array>
                        <mxPoint as="offset"/>
                    </mxGeometry>
                </mxCell>
                <mxCell id="aZ_iibs6CTDmy4hI5hPu-135" style="edgeStyle=orthogonalEdgeStyle;rounded=0;orthogonalLoop=1;jettySize=auto;html=1;strokeWidth=1;entryX=0.25;entryY=0;entryDx=0;entryDy=0;" parent="1" source="aZ_iibs6CTDmy4hI5hPu-53" target="aZ_iibs6CTDmy4hI5hPu-134" edge="1">
                    <mxGeometry relative="1" as="geometry">
                        <Array as="points"/>
                    </mxGeometry>
                </mxCell>
                <mxCell id="aZ_iibs6CTDmy4hI5hPu-53" value="groep:IMBORHierarchischeCollectie" style="html=1;" parent="1" vertex="1">
                    <mxGeometry x="24" y="560.21" width="230" height="39.79" as="geometry"/>
                </mxCell>
                <mxCell id="aZ_iibs6CTDmy4hI5hPu-58" style="edgeStyle=orthogonalEdgeStyle;rounded=0;orthogonalLoop=1;jettySize=auto;html=1;entryX=0;entryY=0.5;entryDx=0;entryDy=0;" parent="1" target="aZ_iibs6CTDmy4hI5hPu-70" edge="1">
                    <mxGeometry relative="1" as="geometry">
                        <mxPoint x="810" y="80" as="sourcePoint"/>
                        <Array as="points">
                            <mxPoint x="1020" y="80"/>
                            <mxPoint x="1020" y="590"/>
                        </Array>
                    </mxGeometry>
                </mxCell>
                <mxCell id="aZ_iibs6CTDmy4hI5hPu-59" value="sh:property" style="text;html=1;align=center;verticalAlign=middle;resizable=0;points=[];labelBackgroundColor=#ffffff;" parent="aZ_iibs6CTDmy4hI5hPu-58" vertex="1" connectable="0">
                    <mxGeometry x="0.3168" y="-2" relative="1" as="geometry">
                        <mxPoint x="42" y="147.67000000000002" as="offset"/>
                    </mxGeometry>
                </mxCell>
                <mxCell id="aZ_iibs6CTDmy4hI5hPu-60" style="edgeStyle=orthogonalEdgeStyle;rounded=0;orthogonalLoop=1;jettySize=auto;html=1;exitX=1;exitY=0.5;exitDx=0;exitDy=0;entryX=0;entryY=0.25;entryDx=0;entryDy=0;" parent="1" source="aZ_iibs6CTDmy4hI5hPu-70" target="16" edge="1">
                    <mxGeometry relative="1" as="geometry">
                        <mxPoint x="1450" y="570" as="targetPoint"/>
                    </mxGeometry>
                </mxCell>
                <mxCell id="aZ_iibs6CTDmy4hI5hPu-61" value="sh:path" style="text;html=1;align=center;verticalAlign=middle;resizable=0;points=[];labelBackgroundColor=#ffffff;" parent="aZ_iibs6CTDmy4hI5hPu-60" vertex="1" connectable="0">
                    <mxGeometry x="-0.0739" y="3" relative="1" as="geometry">
                        <mxPoint x="3" as="offset"/>
                    </mxGeometry>
                </mxCell>
                <mxCell id="aZ_iibs6CTDmy4hI5hPu-64" style="edgeStyle=orthogonalEdgeStyle;rounded=0;orthogonalLoop=1;jettySize=auto;html=1;entryX=0;entryY=0.5;entryDx=0;entryDy=0;" parent="1" source="aZ_iibs6CTDmy4hI5hPu-68" target="aZ_iibs6CTDmy4hI5hPu-80" edge="1">
                    <mxGeometry relative="1" as="geometry">
                        <mxPoint x="1460" y="814.21" as="targetPoint"/>
                        <Array as="points">
                            <mxPoint x="1220" y="806"/>
                        </Array>
                    </mxGeometry>
                </mxCell>
                <mxCell id="aZ_iibs6CTDmy4hI5hPu-65" value="sh:datatype" style="text;html=1;align=center;verticalAlign=middle;resizable=0;points=[];labelBackgroundColor=#ffffff;" parent="aZ_iibs6CTDmy4hI5hPu-64" vertex="1" connectable="0">
                    <mxGeometry x="0.2403" y="-35" relative="1" as="geometry">
                        <mxPoint x="11.670000000000002" y="-37" as="offset"/>
                    </mxGeometry>
                </mxCell>
                <mxCell id="aZ_iibs6CTDmy4hI5hPu-66" style="edgeStyle=orthogonalEdgeStyle;rounded=0;orthogonalLoop=1;jettySize=auto;html=1;entryX=0;entryY=0.5;entryDx=0;entryDy=0;exitX=1;exitY=0.5;exitDx=0;exitDy=0;" parent="1" source="aZ_iibs6CTDmy4hI5hPu-71" target="aZ_iibs6CTDmy4hI5hPu-84" edge="1">
                    <mxGeometry relative="1" as="geometry">
                        <mxPoint x="1280" y="675.21" as="sourcePoint"/>
                        <Array as="points">
                            <mxPoint x="1320" y="616"/>
                            <mxPoint x="1320" y="746"/>
                        </Array>
                    </mxGeometry>
                </mxCell>
                <mxCell id="aZ_iibs6CTDmy4hI5hPu-67" value="sh:group" style="text;html=1;align=center;verticalAlign=middle;resizable=0;points=[];labelBackgroundColor=#ffffff;" parent="aZ_iibs6CTDmy4hI5hPu-66" vertex="1" connectable="0">
                    <mxGeometry x="-0.4365" relative="1" as="geometry">
                        <mxPoint x="-20" y="-32.2" as="offset"/>
                    </mxGeometry>
                </mxCell>
                <mxCell id="aZ_iibs6CTDmy4hI5hPu-68" value="sh:PropertyShape" style="swimlane;fontStyle=0;childLayout=stackLayout;horizontal=1;startSize=26;fillColor=none;horizontalStack=0;resizeParent=1;resizeParentMax=0;resizeLast=0;collapsible=1;marginBottom=0;" parent="1" vertex="1">
                    <mxGeometry x="1140" y="525.21" width="160" height="104" as="geometry"/>
                </mxCell>
                <mxCell id="aZ_iibs6CTDmy4hI5hPu-69" value="+ sh:maxCount" style="text;strokeColor=none;fillColor=none;align=left;verticalAlign=top;spacingLeft=4;spacingRight=4;overflow=hidden;rotatable=0;points=[[0,0.5],[1,0.5]];portConstraint=eastwest;" parent="aZ_iibs6CTDmy4hI5hPu-68" vertex="1">
                    <mxGeometry y="26" width="160" height="26" as="geometry"/>
                </mxCell>
                <mxCell id="aZ_iibs6CTDmy4hI5hPu-70" value=" " style="text;strokeColor=none;fillColor=none;align=left;verticalAlign=top;spacingLeft=4;spacingRight=4;overflow=hidden;rotatable=0;points=[[0,0.5],[1,0.5]];portConstraint=eastwest;" parent="aZ_iibs6CTDmy4hI5hPu-68" vertex="1">
                    <mxGeometry y="52" width="160" height="26" as="geometry"/>
                </mxCell>
                <mxCell id="aZ_iibs6CTDmy4hI5hPu-71" value=" " style="text;strokeColor=none;fillColor=none;align=left;verticalAlign=top;spacingLeft=4;spacingRight=4;overflow=hidden;rotatable=0;points=[[0,0.5],[1,0.5]];portConstraint=eastwest;" parent="aZ_iibs6CTDmy4hI5hPu-68" vertex="1">
                    <mxGeometry y="78" width="160" height="26" as="geometry"/>
                </mxCell>
                <mxCell id="aZ_iibs6CTDmy4hI5hPu-72" value="rdf:property" style="swimlane;fontStyle=0;childLayout=stackLayout;horizontal=1;startSize=26;fillColor=none;horizontalStack=0;resizeParent=1;resizeParentMax=0;resizeLast=0;collapsible=1;marginBottom=0;" parent="1" vertex="1">
                    <mxGeometry x="1460" y="525.21" width="160" height="182" as="geometry"/>
                </mxCell>
                <mxCell id="aZ_iibs6CTDmy4hI5hPu-75" value="+ rdfs:label / skos:prefLabel" style="text;strokeColor=none;fillColor=none;align=left;verticalAlign=top;spacingLeft=4;spacingRight=4;overflow=hidden;rotatable=0;points=[[0,0.5],[1,0.5]];portConstraint=eastwest;" parent="aZ_iibs6CTDmy4hI5hPu-72" vertex="1">
                    <mxGeometry y="26" width="160" height="26" as="geometry"/>
                </mxCell>
                <mxCell id="tDK3G-9byJZPKrzgHRc7-2" value="+ rdfs:range" style="text;strokeColor=none;fillColor=none;align=left;verticalAlign=top;spacingLeft=4;spacingRight=4;overflow=hidden;rotatable=0;points=[[0,0.5],[1,0.5]];portConstraint=eastwest;" parent="aZ_iibs6CTDmy4hI5hPu-72" vertex="1">
                    <mxGeometry y="52" width="160" height="26" as="geometry"/>
                </mxCell>
                <mxCell id="aZ_iibs6CTDmy4hI5hPu-129" value="+ skos:definition" style="text;strokeColor=none;fillColor=none;align=left;verticalAlign=top;spacingLeft=4;spacingRight=4;overflow=hidden;rotatable=0;points=[[0,0.5],[1,0.5]];portConstraint=eastwest;" parent="aZ_iibs6CTDmy4hI5hPu-72" vertex="1">
                    <mxGeometry y="78" width="160" height="26" as="geometry"/>
                </mxCell>
                <mxCell id="aZ_iibs6CTDmy4hI5hPu-130" value="+ skos:notation" style="text;strokeColor=none;fillColor=none;align=left;verticalAlign=top;spacingLeft=4;spacingRight=4;overflow=hidden;rotatable=0;points=[[0,0.5],[1,0.5]];portConstraint=eastwest;" parent="aZ_iibs6CTDmy4hI5hPu-72" vertex="1">
                    <mxGeometry y="104" width="160" height="26" as="geometry"/>
                </mxCell>
                <mxCell id="aZ_iibs6CTDmy4hI5hPu-73" value="+ nta8035:unit" style="text;strokeColor=none;fillColor=none;align=left;verticalAlign=top;spacingLeft=4;spacingRight=4;overflow=hidden;rotatable=0;points=[[0,0.5],[1,0.5]];portConstraint=eastwest;fontStyle=0" parent="aZ_iibs6CTDmy4hI5hPu-72" vertex="1">
                    <mxGeometry y="130" width="160" height="26" as="geometry"/>
                </mxCell>
                <mxCell id="aZ_iibs6CTDmy4hI5hPu-74" value="+ nta8035:quantityKind" style="text;strokeColor=none;fillColor=none;align=left;verticalAlign=top;spacingLeft=4;spacingRight=4;overflow=hidden;rotatable=0;points=[[0,0.5],[1,0.5]];portConstraint=eastwest;fontStyle=0" parent="aZ_iibs6CTDmy4hI5hPu-72" vertex="1">
                    <mxGeometry y="156" width="160" height="26" as="geometry"/>
                </mxCell>
                <mxCell id="aZ_iibs6CTDmy4hI5hPu-88" style="edgeStyle=orthogonalEdgeStyle;rounded=0;orthogonalLoop=1;jettySize=auto;html=1;entryX=0;entryY=0.5;entryDx=0;entryDy=0;exitX=1;exitY=0.5;exitDx=0;exitDy=0;" parent="1" source="aZ_iibs6CTDmy4hI5hPu-13" target="aZ_iibs6CTDmy4hI5hPu-100" edge="1">
                    <mxGeometry relative="1" as="geometry">
                        <mxPoint x="980" y="119" as="sourcePoint"/>
                        <Array as="points">
                            <mxPoint x="810" y="80"/>
                            <mxPoint x="1020" y="80"/>
                            <mxPoint x="1020" y="940"/>
                        </Array>
                    </mxGeometry>
                </mxCell>
                <mxCell id="aZ_iibs6CTDmy4hI5hPu-89" value="sh:property" style="text;html=1;align=center;verticalAlign=middle;resizable=0;points=[];labelBackgroundColor=#ffffff;" parent="aZ_iibs6CTDmy4hI5hPu-88" vertex="1" connectable="0">
                    <mxGeometry x="0.3168" y="-2" relative="1" as="geometry">
                        <mxPoint x="42" y="272.88" as="offset"/>
                    </mxGeometry>
                </mxCell>
                <mxCell id="aZ_iibs6CTDmy4hI5hPu-90" style="edgeStyle=orthogonalEdgeStyle;rounded=0;orthogonalLoop=1;jettySize=auto;html=1;entryX=0;entryY=0.5;entryDx=0;entryDy=0;exitX=1;exitY=0.5;exitDx=0;exitDy=0;" parent="1" source="aZ_iibs6CTDmy4hI5hPu-100" target="aZ_iibs6CTDmy4hI5hPu-104" edge="1">
                    <mxGeometry relative="1" as="geometry">
                        <mxPoint x="1420" y="895.21" as="targetPoint"/>
                    </mxGeometry>
                </mxCell>
                <mxCell id="aZ_iibs6CTDmy4hI5hPu-91" value="sh:path" style="text;html=1;align=center;verticalAlign=middle;resizable=0;points=[];labelBackgroundColor=#ffffff;" parent="aZ_iibs6CTDmy4hI5hPu-90" vertex="1" connectable="0">
                    <mxGeometry x="-0.0739" y="3" relative="1" as="geometry">
                        <mxPoint as="offset"/>
                    </mxGeometry>
                </mxCell>
                <mxCell id="aZ_iibs6CTDmy4hI5hPu-94" style="edgeStyle=orthogonalEdgeStyle;rounded=0;orthogonalLoop=1;jettySize=auto;html=1;entryX=0;entryY=0.5;entryDx=0;entryDy=0;" parent="1" source="aZ_iibs6CTDmy4hI5hPu-98" target="aZ_iibs6CTDmy4hI5hPu-110" edge="1">
                    <mxGeometry relative="1" as="geometry">
                        <mxPoint x="1457" y="1154.2099999999998" as="targetPoint"/>
                        <Array as="points">
                            <mxPoint x="1220" y="1091.21"/>
                        </Array>
                    </mxGeometry>
                </mxCell>
                <mxCell id="aZ_iibs6CTDmy4hI5hPu-95" value="sh:datatype" style="text;html=1;align=center;verticalAlign=middle;resizable=0;points=[];labelBackgroundColor=#ffffff;" parent="aZ_iibs6CTDmy4hI5hPu-94" vertex="1" connectable="0">
                    <mxGeometry x="0.2403" y="-35" relative="1" as="geometry">
                        <mxPoint x="3.6700000000000017" y="-35" as="offset"/>
                    </mxGeometry>
                </mxCell>
                <mxCell id="aZ_iibs6CTDmy4hI5hPu-96" style="edgeStyle=orthogonalEdgeStyle;rounded=0;orthogonalLoop=1;jettySize=auto;html=1;entryX=0;entryY=0.5;entryDx=0;entryDy=0;exitX=1;exitY=0.5;exitDx=0;exitDy=0;" parent="1" source="aZ_iibs6CTDmy4hI5hPu-101" target="aZ_iibs6CTDmy4hI5hPu-114" edge="1">
                    <mxGeometry relative="1" as="geometry">
                        <mxPoint x="1280" y="1025.21" as="sourcePoint"/>
                        <Array as="points">
                            <mxPoint x="1310" y="966"/>
                            <mxPoint x="1310" y="1021"/>
                        </Array>
                    </mxGeometry>
                </mxCell>
                <mxCell id="aZ_iibs6CTDmy4hI5hPu-97" value="sh:group" style="text;html=1;align=center;verticalAlign=middle;resizable=0;points=[];labelBackgroundColor=#ffffff;" parent="aZ_iibs6CTDmy4hI5hPu-96" vertex="1" connectable="0">
                    <mxGeometry x="-0.4365" relative="1" as="geometry">
                        <mxPoint x="-20" y="-18.490000000000002" as="offset"/>
                    </mxGeometry>
                </mxCell>
                <mxCell id="aZ_iibs6CTDmy4hI5hPu-98" value="sh:PropertyShape" style="swimlane;fontStyle=0;childLayout=stackLayout;horizontal=1;startSize=26;fillColor=none;horizontalStack=0;resizeParent=1;resizeParentMax=0;resizeLast=0;collapsible=1;marginBottom=0;" parent="1" vertex="1">
                    <mxGeometry x="1140" y="875.21" width="160" height="104" as="geometry"/>
                </mxCell>
                <mxCell id="aZ_iibs6CTDmy4hI5hPu-99" value="+ sh:maxCount" style="text;strokeColor=none;fillColor=none;align=left;verticalAlign=top;spacingLeft=4;spacingRight=4;overflow=hidden;rotatable=0;points=[[0,0.5],[1,0.5]];portConstraint=eastwest;" parent="aZ_iibs6CTDmy4hI5hPu-98" vertex="1">
                    <mxGeometry y="26" width="160" height="26" as="geometry"/>
                </mxCell>
                <mxCell id="aZ_iibs6CTDmy4hI5hPu-100" value=" " style="text;strokeColor=none;fillColor=none;align=left;verticalAlign=top;spacingLeft=4;spacingRight=4;overflow=hidden;rotatable=0;points=[[0,0.5],[1,0.5]];portConstraint=eastwest;" parent="aZ_iibs6CTDmy4hI5hPu-98" vertex="1">
                    <mxGeometry y="52" width="160" height="26" as="geometry"/>
                </mxCell>
                <mxCell id="aZ_iibs6CTDmy4hI5hPu-101" value=" " style="text;strokeColor=none;fillColor=none;align=left;verticalAlign=top;spacingLeft=4;spacingRight=4;overflow=hidden;rotatable=0;points=[[0,0.5],[1,0.5]];portConstraint=eastwest;" parent="aZ_iibs6CTDmy4hI5hPu-98" vertex="1">
                    <mxGeometry y="78" width="160" height="26" as="geometry"/>
                </mxCell>
                <mxCell id="aZ_iibs6CTDmy4hI5hPu-102" value="rdf:property" style="swimlane;fontStyle=0;childLayout=stackLayout;horizontal=1;startSize=26;fillColor=none;horizontalStack=0;resizeParent=1;resizeParentMax=0;resizeLast=0;collapsible=1;marginBottom=0;" parent="1" vertex="1">
                    <mxGeometry x="1460" y="875.21" width="160" height="104" as="geometry"/>
                </mxCell>
                <mxCell id="aZ_iibs6CTDmy4hI5hPu-103" value="+ rdfs:label / skos:prefLabel" style="text;strokeColor=none;fillColor=none;align=left;verticalAlign=top;spacingLeft=4;spacingRight=4;overflow=hidden;rotatable=0;points=[[0,0.5],[1,0.5]];portConstraint=eastwest;fontStyle=0" parent="aZ_iibs6CTDmy4hI5hPu-102" vertex="1">
                    <mxGeometry y="26" width="160" height="26" as="geometry"/>
                </mxCell>
                <mxCell id="aZ_iibs6CTDmy4hI5hPu-104" value="+ skos:definition" style="text;strokeColor=none;fillColor=none;align=left;verticalAlign=top;spacingLeft=4;spacingRight=4;overflow=hidden;rotatable=0;points=[[0,0.5],[1,0.5]];portConstraint=eastwest;fontStyle=0" parent="aZ_iibs6CTDmy4hI5hPu-102" vertex="1">
                    <mxGeometry y="52" width="160" height="26" as="geometry"/>
                </mxCell>
                <mxCell id="aZ_iibs6CTDmy4hI5hPu-105" value="+ skos:notation" style="text;strokeColor=none;fillColor=none;align=left;verticalAlign=top;spacingLeft=4;spacingRight=4;overflow=hidden;rotatable=0;points=[[0,0.5],[1,0.5]];portConstraint=eastwest;" parent="aZ_iibs6CTDmy4hI5hPu-102" vertex="1">
                    <mxGeometry y="78" width="160" height="26" as="geometry"/>
                </mxCell>
                <mxCell id="aZ_iibs6CTDmy4hI5hPu-110" value="xsd:string" style="swimlane;fontStyle=0;childLayout=stackLayout;horizontal=1;startSize=26;fillColor=none;horizontalStack=0;resizeParent=1;resizeParentMax=0;resizeLast=0;collapsible=1;marginBottom=0;" parent="1" vertex="1">
                    <mxGeometry x="1460" y="1065.21" width="160" height="52" as="geometry"/>
                </mxCell>
                <mxCell id="aZ_iibs6CTDmy4hI5hPu-114" value="sh:PropertyGroup" style="swimlane;fontStyle=0;childLayout=stackLayout;horizontal=1;startSize=26;fillColor=none;horizontalStack=0;resizeParent=1;resizeParentMax=0;resizeLast=0;collapsible=1;marginBottom=0;" parent="1" vertex="1">
                    <mxGeometry x="1460" y="995.21" width="160" height="52" as="geometry"/>
                </mxCell>
                <mxCell id="aZ_iibs6CTDmy4hI5hPu-115" value="+ rdfs:label / skos:prefLabel" style="text;strokeColor=none;fillColor=none;align=left;verticalAlign=top;spacingLeft=4;spacingRight=4;overflow=hidden;rotatable=0;points=[[0,0.5],[1,0.5]];portConstraint=eastwest;" parent="aZ_iibs6CTDmy4hI5hPu-114" vertex="1">
                    <mxGeometry y="26" width="160" height="26" as="geometry"/>
                </mxCell>
                <mxCell id="aZ_iibs6CTDmy4hI5hPu-121" value="" style="endArrow=none;html=1;fillColor=#e1d5e7;strokeColor=#009900;strokeWidth=6;dashed=1;" parent="1" edge="1">
                    <mxGeometry width="50" height="50" relative="1" as="geometry">
                        <mxPoint x="960" y="1140" as="sourcePoint"/>
                        <mxPoint x="1620" y="1150" as="targetPoint"/>
                    </mxGeometry>
                </mxCell>
                <mxCell id="aZ_iibs6CTDmy4hI5hPu-132" value="" style="edgeStyle=orthogonalEdgeStyle;rounded=0;orthogonalLoop=1;jettySize=auto;html=1;strokeWidth=1;exitX=0.5;exitY=1;exitDx=0;exitDy=0;entryX=0.25;entryY=0;entryDx=0;entryDy=0;" parent="1" source="aZ_iibs6CTDmy4hI5hPu-52" target="aZ_iibs6CTDmy4hI5hPu-131" edge="1">
                    <mxGeometry relative="1" as="geometry"/>
                </mxCell>
                <mxCell id="aZ_iibs6CTDmy4hI5hPu-133" value="skos:member" style="text;html=1;align=center;verticalAlign=middle;resizable=0;points=[];labelBackgroundColor=#ffffff;" parent="aZ_iibs6CTDmy4hI5hPu-132" vertex="1" connectable="0">
                    <mxGeometry x="-0.2714" y="1" relative="1" as="geometry">
                        <mxPoint x="81.99" y="1.3999999999999995" as="offset"/>
                    </mxGeometry>
                </mxCell>
                <mxCell id="aZ_iibs6CTDmy4hI5hPu-52" value="groep:IMBORVakdisciplineCollectie" style="html=1;" parent="1" vertex="1">
                    <mxGeometry x="20" y="400" width="230" height="40.21" as="geometry"/>
                </mxCell>
                <mxCell id="aZ_iibs6CTDmy4hI5hPu-131" value="&lt;div&gt;IMBOR Algemeen; Bomen; Borden; Civiel constructies; Faunavoorzieningen; Groen; Kabels en leidingen; Meubilair; Riolering; Spelen; Sport; Tunnels; Verkeer; Verkeersregelinstallaties; Verlichting; Water; Wegen&lt;br&gt;&lt;/div&gt;" style="html=1;align=center;whiteSpace=wrap;" parent="1" vertex="1">
                    <mxGeometry x="80" y="480" width="420" height="50" as="geometry"/>
                </mxCell>
                <mxCell id="aZ_iibs6CTDmy4hI5hPu-134" value="ObjectTypeGroep; ObjectType; Type; TypeGedetailleerd; TypeExtraGedetailleerd" style="html=1;whiteSpace=wrap;" parent="1" vertex="1">
                    <mxGeometry x="80" y="640" width="420" height="40" as="geometry"/>
                </mxCell>
                <mxCell id="aZ_iibs6CTDmy4hI5hPu-136" value="skos:member" style="text;html=1;align=center;verticalAlign=middle;resizable=0;points=[];labelBackgroundColor=#ffffff;" parent="1" vertex="1" connectable="0">
                    <mxGeometry x="210" y="617.21" as="geometry">
                        <mxPoint x="19" y="1" as="offset"/>
                    </mxGeometry>
                </mxCell>
                <mxCell id="aZ_iibs6CTDmy4hI5hPu-146" value="&lt;i&gt;&quot;bij hasPart, ofwel raakvlakobjecten / hulpobjecten&quot;&lt;/i&gt;" style="shape=note;whiteSpace=wrap;html=1;size=14;verticalAlign=bottom;align=left;spacingTop=-6;dashed=1;strokeColor=#808080;" parent="1" vertex="1">
                    <mxGeometry x="1100" y="20.00000000000002" width="540" height="135" as="geometry"/>
                </mxCell>
                <mxCell id="aZ_iibs6CTDmy4hI5hPu-147" style="edgeStyle=orthogonalEdgeStyle;rounded=0;orthogonalLoop=1;jettySize=auto;html=1;exitX=1;exitY=0.5;exitDx=0;exitDy=0;" parent="1" source="aZ_iibs6CTDmy4hI5hPu-155" target="aZ_iibs6CTDmy4hI5hPu-157" edge="1">
                    <mxGeometry relative="1" as="geometry">
                        <mxPoint x="1460" y="95.00000000000001" as="targetPoint"/>
                    </mxGeometry>
                </mxCell>
                <mxCell id="aZ_iibs6CTDmy4hI5hPu-148" value="sh:path" style="text;html=1;align=center;verticalAlign=middle;resizable=0;points=[];labelBackgroundColor=#ffffff;" parent="aZ_iibs6CTDmy4hI5hPu-147" vertex="1" connectable="0">
                    <mxGeometry x="-0.0739" y="3" relative="1" as="geometry">
                        <mxPoint as="offset"/>
                    </mxGeometry>
                </mxCell>
                <mxCell id="aZ_iibs6CTDmy4hI5hPu-149" style="edgeStyle=orthogonalEdgeStyle;rounded=0;orthogonalLoop=1;jettySize=auto;html=1;entryX=1;entryY=0.5;entryDx=0;entryDy=0;exitX=0;exitY=0.5;exitDx=0;exitDy=0;" parent="1" source="aZ_iibs6CTDmy4hI5hPu-154" target="aZ_iibs6CTDmy4hI5hPu-2" edge="1">
                    <mxGeometry relative="1" as="geometry">
                        <mxPoint x="830" y="40" as="sourcePoint"/>
                        <mxPoint x="500" y="585" as="targetPoint"/>
                        <Array as="points">
                            <mxPoint x="850" y="69"/>
                            <mxPoint x="850" y="10"/>
                            <mxPoint x="520" y="10"/>
                            <mxPoint x="520" y="59"/>
                        </Array>
                    </mxGeometry>
                </mxCell>
                <mxCell id="aZ_iibs6CTDmy4hI5hPu-150" value="sh:class" style="text;html=1;align=center;verticalAlign=middle;resizable=0;points=[];labelBackgroundColor=#ffffff;" parent="aZ_iibs6CTDmy4hI5hPu-149" vertex="1" connectable="0">
                    <mxGeometry x="0.2605" y="-22" relative="1" as="geometry">
                        <mxPoint x="205.17" y="38" as="offset"/>
                    </mxGeometry>
                </mxCell>
                <mxCell id="aZ_iibs6CTDmy4hI5hPu-153" value="sh:PropertyShape" style="swimlane;fontStyle=0;childLayout=stackLayout;horizontal=1;startSize=26;fillColor=none;horizontalStack=0;resizeParent=1;resizeParentMax=0;resizeLast=0;collapsible=1;marginBottom=0;" parent="1" vertex="1">
                    <mxGeometry x="1140" y="30.00000000000002" width="160" height="104" as="geometry"/>
                </mxCell>
                <mxCell id="aZ_iibs6CTDmy4hI5hPu-154" value="+ sh:maxCount" style="text;strokeColor=none;fillColor=none;align=left;verticalAlign=top;spacingLeft=4;spacingRight=4;overflow=hidden;rotatable=0;points=[[0,0.5],[1,0.5]];portConstraint=eastwest;" parent="aZ_iibs6CTDmy4hI5hPu-153" vertex="1">
                    <mxGeometry y="26" width="160" height="26" as="geometry"/>
                </mxCell>
                <mxCell id="aZ_iibs6CTDmy4hI5hPu-155" value=" " style="text;strokeColor=none;fillColor=none;align=left;verticalAlign=top;spacingLeft=4;spacingRight=4;overflow=hidden;rotatable=0;points=[[0,0.5],[1,0.5]];portConstraint=eastwest;" parent="aZ_iibs6CTDmy4hI5hPu-153" vertex="1">
                    <mxGeometry y="52" width="160" height="26" as="geometry"/>
                </mxCell>
                <mxCell id="aZ_iibs6CTDmy4hI5hPu-156" value=" " style="text;strokeColor=none;fillColor=none;align=left;verticalAlign=top;spacingLeft=4;spacingRight=4;overflow=hidden;rotatable=0;points=[[0,0.5],[1,0.5]];portConstraint=eastwest;" parent="aZ_iibs6CTDmy4hI5hPu-153" vertex="1">
                    <mxGeometry y="78" width="160" height="26" as="geometry"/>
                </mxCell>
                <mxCell id="aZ_iibs6CTDmy4hI5hPu-157" value="nta8035:hasPart" style="swimlane;fontStyle=2;childLayout=stackLayout;horizontal=1;startSize=26;fillColor=none;horizontalStack=0;resizeParent=1;resizeParentMax=0;resizeLast=0;collapsible=1;marginBottom=0;" parent="1" vertex="1">
                    <mxGeometry x="1460" y="69.00000000000003" width="160" height="52" as="geometry"/>
                </mxCell>
                <mxCell id="aZ_iibs6CTDmy4hI5hPu-159" value=" " style="text;strokeColor=none;fillColor=none;align=left;verticalAlign=top;spacingLeft=4;spacingRight=4;overflow=hidden;rotatable=0;points=[[0,0.5],[1,0.5]];portConstraint=eastwest;" parent="aZ_iibs6CTDmy4hI5hPu-157" vertex="1">
                    <mxGeometry y="26" width="160" height="26" as="geometry"/>
                </mxCell>
                <mxCell id="aZ_iibs6CTDmy4hI5hPu-167" style="edgeStyle=orthogonalEdgeStyle;rounded=0;orthogonalLoop=1;jettySize=auto;html=1;exitX=0.5;exitY=1;exitDx=0;exitDy=0;exitPerimeter=0;strokeWidth=1;" parent="1" source="aZ_iibs6CTDmy4hI5hPu-146" target="aZ_iibs6CTDmy4hI5hPu-146" edge="1">
                    <mxGeometry relative="1" as="geometry"/>
                </mxCell>
                <mxCell id="aZ_iibs6CTDmy4hI5hPu-168" style="edgeStyle=orthogonalEdgeStyle;rounded=0;orthogonalLoop=1;jettySize=auto;html=1;exitX=1;exitY=0.5;exitDx=0;exitDy=0;" parent="1" source="aZ_iibs6CTDmy4hI5hPu-13" target="aZ_iibs6CTDmy4hI5hPu-153" edge="1">
                    <mxGeometry relative="1" as="geometry">
                        <mxPoint x="980" y="119" as="sourcePoint"/>
                        <mxPoint x="1080" y="110" as="targetPoint"/>
                        <Array as="points">
                            <mxPoint x="810" y="80"/>
                            <mxPoint x="1080" y="80"/>
                            <mxPoint x="1080" y="82"/>
                        </Array>
                    </mxGeometry>
                </mxCell>
                <mxCell id="aZ_iibs6CTDmy4hI5hPu-169" value="sh:property" style="text;html=1;align=center;verticalAlign=middle;resizable=0;points=[];labelBackgroundColor=#ffffff;" parent="aZ_iibs6CTDmy4hI5hPu-168" vertex="1" connectable="0">
                    <mxGeometry x="0.3168" y="-2" relative="1" as="geometry">
                        <mxPoint x="38" as="offset"/>
                    </mxGeometry>
                </mxCell>
                <mxCell id="aZ_iibs6CTDmy4hI5hPu-144" style="edgeStyle=orthogonalEdgeStyle;rounded=0;orthogonalLoop=1;jettySize=auto;html=1;strokeWidth=1;" parent="1" source="aZ_iibs6CTDmy4hI5hPu-1" target="aZ_iibs6CTDmy4hI5hPu-1" edge="1">
                    <mxGeometry relative="1" as="geometry">
                        <Array as="points">
                            <mxPoint x="367" y="170"/>
                            <mxPoint x="450" y="170"/>
                        </Array>
                        <mxPoint x="490" y="160" as="targetPoint"/>
                    </mxGeometry>
                </mxCell>
                <mxCell id="aZ_iibs6CTDmy4hI5hPu-145" value="rdfs:subClassOf" style="text;html=1;align=center;verticalAlign=middle;resizable=0;points=[];labelBackgroundColor=#ffffff;" parent="aZ_iibs6CTDmy4hI5hPu-144" vertex="1" connectable="0">
                    <mxGeometry x="-0.4335" y="1" relative="1" as="geometry">
                        <mxPoint x="-42" y="1" as="offset"/>
                    </mxGeometry>
                </mxCell>
                <mxCell id="ZUy_ZeGvz7ve_36svNjk-1" value="" style="endArrow=none;html=1;fillColor=#e1d5e7;strokeColor=#009900;strokeWidth=6;dashed=1;" parent="1" edge="1">
                    <mxGeometry width="50" height="50" relative="1" as="geometry">
                        <mxPoint x="10" y="186" as="sourcePoint"/>
                        <mxPoint x="960" y="186" as="targetPoint"/>
                    </mxGeometry>
                </mxCell>
                <mxCell id="ZUy_ZeGvz7ve_36svNjk-2" value="" style="endArrow=none;html=1;fillColor=#e1d5e7;strokeColor=#009900;strokeWidth=6;dashed=1;" parent="1" edge="1">
                    <mxGeometry width="50" height="50" relative="1" as="geometry">
                        <mxPoint x="960" y="190" as="sourcePoint"/>
                        <mxPoint x="960" y="1140" as="targetPoint"/>
                    </mxGeometry>
                </mxCell>
                <mxCell id="aZ_iibs6CTDmy4hI5hPu-80" value="xsd:... (float, decimal, etc.)" style="swimlane;fontStyle=0;childLayout=stackLayout;horizontal=1;startSize=26;fillColor=none;horizontalStack=0;resizeParent=1;resizeParentMax=0;resizeLast=0;collapsible=1;marginBottom=0;" parent="1" vertex="1">
                    <mxGeometry x="1460" y="780" width="160" height="52" as="geometry"/>
                </mxCell>
                <mxCell id="aZ_iibs6CTDmy4hI5hPu-84" value="sh:PropertyGroup" style="swimlane;fontStyle=0;childLayout=stackLayout;horizontal=1;startSize=26;fillColor=none;horizontalStack=0;resizeParent=1;resizeParentMax=0;resizeLast=0;collapsible=1;marginBottom=0;" parent="1" vertex="1">
                    <mxGeometry x="1460" y="720" width="160" height="52" as="geometry"/>
                </mxCell>
                <mxCell id="aZ_iibs6CTDmy4hI5hPu-85" value="+ rdfs:label / skos:prefLabel" style="text;strokeColor=none;fillColor=none;align=left;verticalAlign=top;spacingLeft=4;spacingRight=4;overflow=hidden;rotatable=0;points=[[0,0.5],[1,0.5]];portConstraint=eastwest;" parent="aZ_iibs6CTDmy4hI5hPu-84" vertex="1">
                    <mxGeometry y="26" width="160" height="26" as="geometry"/>
                </mxCell>
                <mxCell id="tDK3G-9byJZPKrzgHRc7-3" value="groep:versie***" style="html=1;" parent="1" vertex="1">
                    <mxGeometry x="20" y="240" width="230" height="40" as="geometry"/>
                </mxCell>
                <mxCell id="16" value="rdf:list" style="swimlane;fontStyle=0;childLayout=stackLayout;horizontal=1;startSize=26;fillColor=none;horizontalStack=0;resizeParent=1;resizeParentMax=0;resizeLast=0;collapsible=1;marginBottom=0;" vertex="1" parent="1">
                    <mxGeometry x="1351" y="525.21" width="67" height="70" as="geometry"/>
                </mxCell>
                <mxCell id="30" style="edgeStyle=orthogonalEdgeStyle;rounded=0;orthogonalLoop=1;jettySize=auto;html=1;exitX=1;exitY=0.5;exitDx=0;exitDy=0;" edge="1" parent="1" source="16" target="aZ_iibs6CTDmy4hI5hPu-72">
                    <mxGeometry relative="1" as="geometry"/>
                </mxCell>
                <mxCell id="31" value="&lt;font style=&quot;font-size: 12px&quot;&gt;rdf:_1&lt;/font&gt;" style="edgeLabel;html=1;align=center;verticalAlign=middle;resizable=0;points=[];" vertex="1" connectable="0" parent="30">
                    <mxGeometry x="-0.4933" y="-1" relative="1" as="geometry">
                        <mxPoint y="22.799999999999997" as="offset"/>
                    </mxGeometry>
                </mxCell>
                <mxCell id="33" style="edgeStyle=orthogonalEdgeStyle;rounded=0;orthogonalLoop=1;jettySize=auto;html=1;exitX=0.5;exitY=1;exitDx=0;exitDy=0;entryX=0.5;entryY=0;entryDx=0;entryDy=0;" edge="1" parent="1" source="16" target="22">
                    <mxGeometry relative="1" as="geometry">
                        <mxPoint x="1420" y="583.21" as="sourcePoint"/>
                        <mxPoint x="1470" y="626.2" as="targetPoint"/>
                    </mxGeometry>
                </mxCell>
                <mxCell id="34" value="&lt;font style=&quot;font-size: 12px&quot;&gt;rdf:_2&lt;/font&gt;" style="edgeLabel;html=1;align=center;verticalAlign=middle;resizable=0;points=[];" vertex="1" connectable="0" parent="33">
                    <mxGeometry x="-0.4933" y="-1" relative="1" as="geometry">
                        <mxPoint x="1" y="10.79" as="offset"/>
                    </mxGeometry>
                </mxCell>
                <mxCell id="17" value="+ rdf:_1&#10;+ rdf:_2" style="text;strokeColor=none;fillColor=none;align=left;verticalAlign=top;spacingLeft=4;spacingRight=4;overflow=hidden;rotatable=0;points=[[0,0.5],[1,0.5]];portConstraint=eastwest;" vertex="1" parent="1">
                    <mxGeometry x="1343" y="551.21" width="67" height="44" as="geometry"/>
                </mxCell>
                <mxCell id="22" value="rdf:value" style="swimlane;fontStyle=2;childLayout=stackLayout;horizontal=1;startSize=26;fillColor=none;horizontalStack=0;resizeParent=1;resizeParentMax=0;resizeLast=0;collapsible=1;marginBottom=0;" vertex="1" parent="1">
                    <mxGeometry x="1351" y="655.21" width="67" height="52" as="geometry"/>
                </mxCell>
                <mxCell id="23" value=" " style="text;strokeColor=none;fillColor=none;align=left;verticalAlign=top;spacingLeft=4;spacingRight=4;overflow=hidden;rotatable=0;points=[[0,0.5],[1,0.5]];portConstraint=eastwest;" vertex="1" parent="22">
                    <mxGeometry y="26" width="67" height="26" as="geometry"/>
                </mxCell>
                <mxCell id="44" value="&lt;div&gt;Alle resources met een URI als:&lt;br&gt;&lt;i&gt;.../imbor/def/.../*&lt;/i&gt;&lt;br&gt;&lt;/div&gt;" style="html=1;align=center;whiteSpace=wrap;" vertex="1" parent="1">
                    <mxGeometry x="70" y="320.21" width="420" height="50" as="geometry"/>
                </mxCell>
                <mxCell id="45" value="" style="edgeStyle=orthogonalEdgeStyle;rounded=0;orthogonalLoop=1;jettySize=auto;html=1;strokeWidth=1;exitX=0.5;exitY=1;exitDx=0;exitDy=0;entryX=0.25;entryY=0;entryDx=0;entryDy=0;" edge="1" parent="1" source="tDK3G-9byJZPKrzgHRc7-3" target="44">
                    <mxGeometry relative="1" as="geometry">
                        <mxPoint x="145" y="450.21000000000004" as="sourcePoint"/>
                        <mxPoint x="194.99999999999977" y="490" as="targetPoint"/>
                    </mxGeometry>
                </mxCell>
                <mxCell id="46" value="skos:member" style="text;html=1;align=center;verticalAlign=middle;resizable=0;points=[];labelBackgroundColor=#ffffff;" vertex="1" connectable="0" parent="45">
                    <mxGeometry x="-0.2714" y="1" relative="1" as="geometry">
                        <mxPoint x="81.99" y="1.3999999999999995" as="offset"/>
                    </mxGeometry>
                </mxCell>
            </root>
        </mxGraphModel>
    </diagram>
</mxfile>